<?xml version="1.0" encoding="utf-8"?>
<!-- Generator: Adobe Illustrator 22.0.2, SVG Export Plug-In . SVG Version: 6.00 Build 0)  -->
<svg version="1.1" id="图层_1" xmlns="http://www.w3.org/2000/svg" xmlns:xlink="http://www.w3.org/1999/xlink" x="0px" y="0px"
	 viewBox="0 0 202.6 59.5" style="enable-background:new 0 0 202.6 59.5;" xml:space="preserve">
<style type="text/css">
	.st0{fill:#009944;}
	.st1{font-family:'SourceHanSansCN-Medium-GBpc-EUC-H';}
	.st2{font-size:13.653px;}
	.st3{fill:none;stroke:#009944;stroke-width:0.5;stroke-miterlimit:10;}
</style>
<g>
	<g>
		<path class="st0" d="M56.8,44.2h2.1v-0.5h2.5v0.5h2.1v-0.5H66v0.5h2.1v1H66v0.4h2.4v1H66v0.5h3.5v1.1H67c0.6,0.4,1.5,0.8,2.7,1.1
			v1.1c-0.9-0.1-1.7-0.3-2.3-0.5v1.7H65v-1.8h-5v1.8h-2.4v-1.8c-0.3,0.1-0.9,0.2-1.8,0.4c-0.3,0.1-0.5,0.1-0.7,0.2v-1.1
			c1.1-0.3,2-0.7,2.7-1.1h-2.5v-1.1h3.6v-0.5h-2.4v-1h2.4v-0.4h-2.1V44.2L56.8,44.2z M62.6,52.3c-1.1,0.8-3.4,1.3-6.8,1.3v-1.2
			c3.7-0.2,5.5-0.9,5.2-2v-0.3h2.8v0.3c-0.3,1,1.5,1.7,5.2,2v1.1C66,53.5,63.8,53.1,62.6,52.3L62.6,52.3z M69.5,42.2v2h-2.6v-0.8h-9
			v0.8h-2.6v-2h5.5v-0.5h3.3v0.5H69.5L69.5,42.2z M60.8,48.2c-0.1,0.1-0.2,0.2-0.4,0.3s-0.3,0.2-0.4,0.3h4.6c0,0-0.1-0.1-0.3-0.2
			c-0.1-0.1-0.2-0.2-0.4-0.4L60.8,48.2L60.8,48.2z M61.4,46.6v0.5h2.1v-0.5H61.4L61.4,46.6z M61.4,45.2v0.4h2.1v-0.4H61.4L61.4,45.2
			z M72.3,42.5H73v-0.8h2.3v0.8h1.8v-0.8h2.3v0.8h0.8V44h-0.8v5.3h0.8v1.5H72v-1.5h1V44h-0.8v-1.5H72.3z M86,53.4h-2.3v-6.8h-0.8
			v3.3c0.1,1.9-0.8,3.2-2.9,3.8v-1.3c0.4-0.3,0.5-1,0.5-2v-8.1h3.4c1.1,0,2-0.1,3-0.4v1.6c-0.8,0.2-1.7,0.3-2.6,0.3h-1.4v1.4h4v1.5
			H86V53.4L86,53.4z M72.1,53.7v-1.2c0.8-0.2,1.3-0.7,1.6-1.5H76C75.5,52.5,74.2,53.4,72.1,53.7L72.1,53.7z M79.8,53.6
			c-1.9-0.3-3.1-1.2-3.4-2.6h2.3c0.1,0.7,0.5,1.2,1.1,1.4V53.6L79.8,53.6z M75.4,48.4v0.9h1.8v-0.9H75.4L75.4,48.4z M75.4,46.2V47
			h1.8v-0.8H75.4L75.4,46.2z M75.4,43.9v0.8h1.8v-0.8H75.4L75.4,43.9z M94.1,44.9v-1.5h3.2v-1.7h2.8v1.7h3.2v1.5h-3.2
			c0.2,2.3,1.3,4,3.5,4.9v1.5c-2.4-0.6-4-1.5-4.8-2.7c-1.1,1.4-2.8,2.3-5.1,2.7v-1.5c2.3-0.7,3.5-2.4,3.5-4.9H94.1L94.1,44.9z
			 M89.3,46.8v-1.5h4v4.9c0,1.1,0.6,1.6,1.9,1.6h8.6v1.5h-9c-1.1,0-2-0.3-2.5-0.8c-0.6,0.6-1.6,0.9-3,1v-1.2
			c0.9-0.2,1.3-0.7,1.3-1.3v-4.1h-1.3V46.8z M92.4,41.9c0.5,0.9,0.9,1.7,1.1,2.6H91c-0.2-0.9-0.5-1.8-0.9-2.6H92.4L92.4,41.9z"/>
		<path class="st0" d="M19.3,29h7.9c0-0.5,0-0.8-0.1-1c0-0.2-0.1-0.5-0.2-0.8s-0.3-0.5-0.5-0.7S26,26.1,25.7,26
			c-0.3-0.1-0.6-0.3-0.9-0.3c-0.3-0.1-0.7-0.1-1.1-0.1c-0.5,0-0.9,0.1-1.4,0.2c-0.4,0.1-0.8,0.3-1.2,0.5c-0.4,0.2-0.7,0.5-0.9,0.8
			c-0.2,0.3-0.4,0.6-0.5,0.9C19.6,28.2,19.4,28.6,19.3,29L19.3,29z M32.5,38.1c0.2-1.6,0.4-4.5,0.6-8.7c0.2-4.2,0.4-7.8,0.4-10.9
			c1.2,0,2,0,2.5,0c0.7,0,1.5,0,2.4,0L38,23.7l-0.6,11.7l-0.1,2.7c-0.9,0-1.7,0-2.3,0C34.9,38.1,34,38.1,32.5,38.1L32.5,38.1z
			 M39.9,38.1c0.2-1.6,0.4-4.5,0.6-8.7c0.2-4.2,0.4-7.8,0.4-10.9c1.2,0,2,0,2.5,0c0.7,0,1.5,0,2.4,0l-0.4,5.2l-0.6,11.7l-0.1,2.7
			c-0.9,0-1.7,0-2.3,0C42.3,38.1,41.4,38.1,39.9,38.1L39.9,38.1z M47.1,32c0.1-0.9,0.2-1.9,0.2-2.9c1.6,0,3.1,0.1,4.3,0.1
			c1.3,0,2.7,0,4.4-0.1c-0.1,0.8-0.1,1.8-0.2,2.9c-1.6,0-3.1-0.1-4.4-0.1C50.2,31.9,48.7,31.9,47.1,32L47.1,32z M56.6,37.8l-0.4-3.2
			c1.1,0.4,2,0.6,2.8,0.8c0.8,0.1,1.5,0.2,2.1,0.2s1.2-0.1,1.6-0.2c0.4-0.1,0.8-0.3,1-0.6S64,34.3,64,34c0-0.1,0-0.2,0-0.3
			s-0.1-0.2-0.2-0.3c-0.1-0.1-0.2-0.2-0.3-0.3s-0.2-0.2-0.4-0.3s-0.4-0.3-0.7-0.5l-0.9-0.6c-0.9-0.6-1.5-1-2-1.4
			c-0.5-0.3-0.8-0.7-1.2-1c-0.3-0.4-0.5-0.7-0.7-1.1s-0.2-0.8-0.2-1.2c0-0.7,0.2-1.4,0.7-2s1.2-1.1,2.2-1.4s2.1-0.4,3.4-0.4
			c1.5,0,3.2,0.1,5.1,0.4l0.2,3c-1.3-0.5-2.6-0.7-3.8-0.7c-0.6,0-1.2,0.1-1.7,0.2s-0.8,0.3-1,0.5s-0.3,0.5-0.3,0.8
			c0,0.2,0,0.3,0.1,0.5s0.2,0.3,0.3,0.5c0.2,0.2,0.4,0.3,0.6,0.5c0.2,0.2,0.7,0.5,1.4,0.9c0.7,0.5,1.3,0.9,1.8,1.2
			c0.5,0.4,1,0.7,1.3,1.1c0.3,0.4,0.6,0.8,0.8,1.2c0.2,0.4,0.3,0.8,0.3,1.3c0,0.7-0.3,1.4-0.8,2s-1.3,1.1-2.3,1.4
			c-1,0.3-2.2,0.5-3.5,0.5c-0.7,0-1.5,0-2.5-0.1C58.7,38.2,57.7,38.1,56.6,37.8L56.6,37.8z M82.8,26.7c0.2-0.7,0.3-1.2,0.3-1.4
			c0-0.3,0.1-0.7,0.2-1.3c1.5-0.3,2.9-0.5,4-0.6c1.2-0.1,2.3-0.2,3.4-0.2c1.2,0,2.4,0.1,3.4,0.4c1,0.2,1.8,0.6,2.4,1.2
			c0.6,0.5,0.9,1.3,0.9,2.3c0,0.5-0.1,1.9-0.3,4.2c-0.2,2.2-0.3,4.5-0.3,6.9c-0.9,0-1.6,0-2.4,0c-0.7,0-2.2,0-3.1,0
			c1.3-2.2,1.7-4.8,1.3-7.6c-0.4,0.2-0.8,0.4-1,0.5s-0.5,0.2-0.8,0.3c-0.3,0.1-0.8,0.2-1.5,0.4c-0.7,0.2-1.3,0.3-1.7,0.4
			c-0.4,0.1-0.8,0.3-1.2,0.4c-0.3,0.2-0.6,0.3-0.9,0.5c-0.2,0.2-0.4,0.4-0.5,0.6c0,0.2,0,0.4,0,0.7c0,0.4,0.1,0.7,0.4,1
			s0.6,0.5,1,0.6s0.9,0.2,1.5,0.2c2.5,0,3.7-1.9,3.6-3.9c0.3,2.6-0.7,5-3.6,5.8c-1.6,0.4-3.5,0.3-4.8-0.2c-0.9-0.3-1.6-0.8-2-1.5
			c-0.1-0.2-0.3-0.5-0.4-0.7c-0.1,0.6-0.3,1.3-0.5,2.4c-0.9,0.2-1.7,0.3-2.2,0.3s-1,0.1-1.5,0.1c-0.8,0-1.6-0.1-2.2-0.2
			c-0.7-0.1-1.2-0.4-1.6-0.7s-0.7-0.7-0.9-1.2c-0.2-0.5-0.2-0.9-0.2-1.4c0-0.1,0-0.3,0-0.5s0.1-0.9,0.1-2l0.4-6h-2.4
			c0.1-0.6,0.1-1.5,0.1-2.8h2.5c0.1-0.6,0.1-1.5,0.2-2.8l2-0.3c0.4-0.1,1.2-0.2,2.4-0.5c-0.1,1.3-0.1,2.5-0.1,3.6h4.3
			C81,24.9,81,25.9,81,26.4h-4.3c-0.2,3.9-0.4,6.1-0.4,6.8c0,0.6,0.1,1.1,0.2,1.4c0.1,0.3,0.4,0.6,0.7,0.7c0.3,0.1,0.7,0.2,1.1,0.2
			c0.3,0,0.6,0,0.9-0.1c0.3,0,0.7-0.1,1.3-0.3c-0.1-0.3-0.1-0.6-0.1-0.9c0-0.4,0.1-0.8,0.3-1.2c0.2-0.4,0.4-0.8,0.7-1.1
			c0.3-0.3,0.7-0.7,1.3-1c0.5-0.3,1.3-0.6,2.2-0.9c1-0.3,2.3-0.6,3.9-0.9c0.4-0.1,0.9-0.2,1.3-0.3c0.5-0.1,0.8-0.2,1.1-0.3
			c0.3-0.1,0.5-0.2,0.7-0.4c0.2-0.2,0.3-0.3,0.4-0.5s0.1-0.4,0.1-0.6c0-0.4-0.1-0.7-0.4-0.9c-0.3-0.3-0.7-0.4-1.1-0.5
			c-0.5-0.1-1-0.2-1.5-0.2C87.5,25.5,85.2,25.9,82.8,26.7L82.8,26.7z M99.2,38.1l0.5-6.8l0.1-4c0-0.8,0-1.6,0-2.5c0-0.1,0-0.6,0-1.4
			c1,0,1.8,0,2.3,0c0.6,0,1.3,0,2.3,0l-0.1,2c0.4-0.5,0.8-0.9,1.1-1.2c0.3-0.3,0.6-0.5,1-0.7s0.8-0.3,1.3-0.4s0.9-0.1,1.4-0.1
			c0.4,0,0.9,0,1.4,0.1c0,0.9,0.1,2,0.1,3.4c-0.7-0.2-1.3-0.2-1.8-0.2c-0.7,0-1.2,0.1-1.7,0.3c-0.5,0.2-0.9,0.4-1.3,0.8
			c-0.4,0.3-0.7,0.8-1,1.3c-0.2,0.4-0.4,0.9-0.5,1.6c-0.1,0.5-0.2,1.4-0.2,2.6c-0.1,1.2-0.1,2.4-0.1,3.6c0,0.5,0,1,0,1.7
			c-0.8,0-1.6,0-2.3,0C101,38.1,100.2,38.1,99.2,38.1L99.2,38.1z M30.2,34.8c-0.1,0.6-0.3,1.6-0.6,3c-1.2,0.2-2.2,0.4-3.1,0.4
			c-0.8,0.1-1.7,0.1-2.5,0.1c-1.5,0-2.8-0.1-3.9-0.4c-1.2-0.3-2.2-0.7-3.1-1.4s-1.5-1.5-1.9-2.4c-0.4-1-0.6-2-0.6-3
			c0-1.2,0.2-2.3,0.7-3.4s1.2-2,2-2.7c0.9-0.7,1.9-1.2,3-1.5s2.3-0.4,3.5-0.4c1.1,0,2.2,0.1,3.3,0.4c1,0.2,1.9,0.6,2.6,1.2
			s1.2,1.2,1.6,2s0.6,1.7,0.6,2.6c0,0.5-0.1,0.9-0.2,1.4H19.3c0,0.4,0,0.6,0,0.8c0,0.6,0.1,1.2,0.4,1.8c0.3,0.5,0.6,1,1.1,1.4
			s1.1,0.7,1.8,0.8c0.7,0.2,1.4,0.3,2,0.3c0.8,0,1.6-0.1,2.5-0.2C27.9,35.4,28.9,35.2,30.2,34.8L30.2,34.8z"/>
		<g>
			<path class="st0" d="M6.6,23.8c2.7,0,4.9,2.2,4.9,4.9s-2.2,4.9-4.9,4.9s-4.9-2.2-4.9-4.9C1.8,26,3.9,23.8,6.6,23.8L6.6,23.8z"/>
			<path class="st0" d="M46.6,14.1c0.8,0,1.4,0.6,1.4,1.4c0,0.8-0.6,1.4-1.4,1.4c-0.8,0-1.4-0.6-1.4-1.4
				C45.1,14.8,45.8,14.1,46.6,14.1L46.6,14.1z"/>
			<path class="st0" d="M43.6,10.3c1,0,1.8,0.8,1.8,1.8s-0.8,1.8-1.8,1.8s-1.8-0.8-1.8-1.8C41.8,11.2,42.6,10.3,43.6,10.3L43.6,10.3
				z"/>
			<path class="st0" d="M39.7,7.1c1.2,0,2.2,1,2.2,2.2s-1,2.2-2.2,2.2s-2.2-1-2.2-2.2C37.6,8.1,38.5,7.1,39.7,7.1L39.7,7.1z"/>
			<path class="st0" d="M35.1,4.7c1.4,0,2.6,1.2,2.6,2.6s-1.2,2.6-2.6,2.6c-1.4,0-2.6-1.2-2.6-2.6C32.5,5.8,33.6,4.7,35.1,4.7
				L35.1,4.7z"/>
			<path class="st0" d="M29.7,3.3c1.6,0,2.9,1.3,2.9,2.9s-1.3,2.9-2.9,2.9s-2.9-1.3-2.9-2.9C26.7,4.7,28,3.3,29.7,3.3L29.7,3.3z"/>
			<path class="st0" d="M23.8,3.5c1.8,0,3.3,1.5,3.3,3.3s-1.5,3.3-3.3,3.3s-3.3-1.5-3.3-3.3C20.4,5,21.9,3.5,23.8,3.5L23.8,3.5z"/>
			<path class="st0" d="M17.8,5.4c2,0,3.7,1.7,3.7,3.7s-1.7,3.7-3.7,3.7s-3.7-1.7-3.7-3.7C14.1,7.1,15.8,5.4,17.8,5.4L17.8,5.4z"/>
			<path class="st0" d="M12.4,9.4c2.3,0,4.1,1.8,4.1,4.1s-1.8,4.1-4.1,4.1s-4.1-1.8-4.1-4.1C8.3,11.2,10.1,9.4,12.4,9.4L12.4,9.4z"
				/>
			<path class="st0" d="M8.3,15.4c2.5,0,4.5,2,4.5,4.5s-2,4.5-4.5,4.5s-4.5-2-4.5-4.5C3.8,17.4,5.8,15.4,8.3,15.4L8.3,15.4z"/>
			<path class="st0" d="M46.6,43.3c0.8,0,1.4-0.6,1.4-1.4c0-0.8-0.6-1.4-1.4-1.4c-0.8,0-1.4,0.6-1.4,1.4
				C45.1,42.7,45.8,43.3,46.6,43.3L46.6,43.3z"/>
			<path class="st0" d="M43.6,47.1c1,0,1.8-0.8,1.8-1.8s-0.8-1.8-1.8-1.8s-1.8,0.8-1.8,1.8S42.6,47.1,43.6,47.1L43.6,47.1z"/>
			<path class="st0" d="M39.7,50.3c1.2,0,2.2-1,2.2-2.2s-1-2.2-2.2-2.2s-2.2,1-2.2,2.2C37.6,49.3,38.5,50.3,39.7,50.3L39.7,50.3z"/>
			<path class="st0" d="M35.1,52.8c1.4,0,2.6-1.2,2.6-2.6c0-1.4-1.2-2.6-2.6-2.6c-1.4,0-2.6,1.2-2.6,2.6S33.6,52.8,35.1,52.8
				L35.1,52.8z"/>
			<path class="st0" d="M29.7,54.1c1.6,0,2.9-1.3,2.9-2.9c0-1.6-1.3-2.9-2.9-2.9s-2.9,1.3-2.9,2.9C26.7,52.8,28,54.1,29.7,54.1
				L29.7,54.1z"/>
			<path class="st0" d="M23.8,53.9c1.8,0,3.3-1.5,3.3-3.3s-1.5-3.3-3.3-3.3s-3.3,1.5-3.3,3.3C20.4,52.4,21.9,53.9,23.8,53.9
				L23.8,53.9z"/>
			<path class="st0" d="M17.8,52c2,0,3.7-1.7,3.7-3.7s-1.7-3.7-3.7-3.7s-3.7,1.7-3.7,3.7C14.1,50.4,15.8,52,17.8,52L17.8,52z"/>
			<path class="st0" d="M12.4,48.1c2.3,0,4.1-1.8,4.1-4.1s-1.8-4.1-4.1-4.1S8.3,41.7,8.3,44C8.3,46.2,10.1,48.1,12.4,48.1L12.4,48.1
				z"/>
			<path class="st0" d="M8.3,42c2.5,0,4.5-2,4.5-4.5s-2-4.5-4.5-4.5s-4.5,2-4.5,4.5C3.8,40,5.8,42,8.3,42L8.3,42z"/>
		</g>
	</g>
	<text transform="matrix(1 0 0 1 120.6514 53.2027)" class="st0 st1 st2">科技服务梦想</text>
	<line class="st3" x1="115.3" y1="41.9" x2="112" y2="53.4"/>
</g>
</svg>
